<!DOCTYPE svg PUBLIC "-//W3C//DTD SVG 1.1//EN" "http://www.w3.org/Graphics/SVG/1.1/DTD/svg11.dtd">
<!-- Uploaded to: SVG Repo, www.svgrepo.com, Transformed by: SVG Repo Mixer Tools -->
<svg fill="#3674d9" width="800px" height="800px" viewBox="0 0 24 24" xmlns="http://www.w3.org/2000/svg" stroke="#3674d9">
<g id="SVGRepo_bgCarrier" stroke-width="0"/>
<g id="SVGRepo_tracerCarrier" stroke-linecap="round" stroke-linejoin="round"/>
<g id="SVGRepo_iconCarrier">
<path d="M20,5a2.984,2.984,0,0,0-1.116.22A2.961,2.961,0,0,0,14.529,3.4a2.983,2.983,0,0,0-5.058,0A2.967,2.967,0,0,0,8,3,3,3,0,0,0,5,6V7.1A5.009,5.009,0,0,0,1,12v1a9.01,9.01,0,0,0,9,9h4a9.01,9.01,0,0,0,9-9V8A3,3,0,0,0,20,5Zm1,8a7.009,7.009,0,0,1-7,7H10a7.009,7.009,0,0,1-7-7V12A3.006,3.006,0,0,1,5,9.171V10a1,1,0,0,0,2,0V6A1,1,0,0,1,9,6V9a1,1,0,0,0,2,0V5a1,1,0,0,1,2,0V9a1,1,0,0,0,2,0V6a1,1,0,0,1,2,0V9a1,1,0,0,0,2,0V8a1,1,0,0,1,2,0Z"/>
</g>
</svg>