<?xml version="1.0" encoding="iso-8859-1"?>
<!-- Uploaded to: SVG Repo, www.svgrepo.com, Generator: SVG Repo Mixer Tools -->
<svg fill="#000000" version="1.1" id="Layer_1" xmlns="http://www.w3.org/2000/svg" xmlns:xlink="http://www.w3.org/1999/xlink" 
	 viewBox="0 0 512 512" xml:space="preserve">
<g>
	<g>
		<path d="M407.147,0c0,9.304-7.57,16.873-16.873,16.873S373.402,9.304,373.402,0H340.01c0,9.304-7.569,16.873-16.871,16.873
			c-9.303,0-16.874-7.569-16.874-16.873h-33.391c0,9.304-7.57,16.873-16.873,16.873c-9.303,0-16.873-7.569-16.873-16.873h-33.391
			c0,9.304-7.57,16.873-16.873,16.873S171.992,9.304,171.992,0h-33.391c0,9.304-7.57,16.873-16.873,16.873
			c-9.303,0-16.873-7.569-16.873-16.873H71.464v512h33.391c0-9.304,7.57-16.873,16.873-16.873c9.303,0,16.873,7.569,16.873,16.873
			h33.391c0-9.304,7.569-16.873,16.872-16.873c9.303,0,16.873,7.569,16.873,16.873h33.391c0-9.304,7.57-16.873,16.873-16.873
			c9.303,0,16.873,7.569,16.873,16.873h33.391c0-9.304,7.57-16.873,16.873-16.873c9.303,0,16.872,7.569,16.872,16.873h33.391
			c0-9.304,7.57-16.873,16.873-16.873c9.303,0,16.873,7.569,16.873,16.873h33.391V0H407.147z M407.147,464.649
			c-5.276-1.885-10.958-2.913-16.873-2.913c-12.892,0-24.662,4.883-33.568,12.891c-8.907-8.008-20.676-12.891-33.567-12.891
			c-12.892,0-24.662,4.883-33.568,12.891c-8.907-8.008-20.677-12.891-33.568-12.891c-12.891,0-24.662,4.883-33.568,12.891
			c-8.907-8.008-20.677-12.891-33.568-12.891c-12.891,0-24.661,4.883-33.567,12.891c-8.907-8.008-20.677-12.891-33.568-12.891
			c-5.915,0-11.597,1.027-16.873,2.913V47.351c5.276,1.885,10.958,2.913,16.873,2.913c12.892,0,24.662-4.883,33.568-12.891
			c8.907,8.008,20.676,12.891,33.567,12.891c12.892,0,24.662-4.883,33.568-12.891c8.907,8.008,20.677,12.891,33.568,12.891
			c12.891,0,24.662-4.883,33.568-12.891c8.907,8.008,20.677,12.891,33.568,12.891c12.891,0,24.661-4.883,33.567-12.891
			c8.907,8.008,20.677,12.891,33.568,12.891c5.915,0,11.597-1.027,16.873-2.913V464.649z"/>
	</g>
</g>
<g>
	<g>
		<rect x="149.895" y="102.378" width="134.278" height="33.391"/>
	</g>
</g>
<g>
	<g>
		<rect x="317.742" y="102.378" width="44.364" height="33.391"/>
	</g>
</g>
<g>
	<g>
		<rect x="149.895" y="176.796" width="134.278" height="33.391"/>
	</g>
</g>
<g>
	<g>
		<rect x="317.742" y="176.796" width="44.364" height="33.391"/>
	</g>
</g>
<g>
	<g>
		<rect x="149.895" y="251.214" width="134.278" height="33.391"/>
	</g>
</g>
<g>
	<g>
		<rect x="317.742" y="251.214" width="44.364" height="33.391"/>
	</g>
</g>
<g>
	<g>
		<rect x="222.432" y="371.979" width="139.676" height="33.391"/>
	</g>
</g>
</svg>